<?xml version="1.0" encoding="UTF-8" standalone="no"?>
<!DOCTYPE svg PUBLIC "-//W3C//DTD SVG 1.1//EN"
 "http://www.w3.org/Graphics/SVG/1.1/DTD/svg11.dtd">
<!-- Generated by graphviz version 2.40.1 (20161225.0304)
 -->
<!-- Title: dependencies Pages: 1 -->
<svg width="2094pt" height="284pt"
 viewBox="0.00 0.00 2094.00 284.00" xmlns="http://www.w3.org/2000/svg" xmlns:xlink="http://www.w3.org/1999/xlink">
<g id="graph0" class="graph" transform="scale(1 1) rotate(0) translate(4 280)">
<title>dependencies</title>
<polygon fill="#ffffff" stroke="transparent" points="-4,4 -4,-280 2090,-280 2090,4 -4,4"/>
<text text-anchor="start" x="1022.0091" y="-42.4" font-family="sans-serif" font-weight="bold" font-size="14.00" fill="#000000">Legend</text>
<polygon fill="#ffffb3" stroke="transparent" points="809,-10 809,-30 829,-30 829,-10 809,-10"/>
<text text-anchor="start" x="832.629" y="-15.4" font-family="sans-serif" font-size="14.00" fill="#000000"> &#160;Declarations</text>
<polygon fill="#8dd3c7" stroke="transparent" points="922,-10 922,-30 942,-30 942,-10 922,-10"/>
<text text-anchor="start" x="945.7251" y="-15.4" font-family="sans-serif" font-size="14.00" fill="#000000"> &#160;Module</text>
<polygon fill="#80b1d3" stroke="transparent" points="1008,-10 1008,-30 1028,-30 1028,-10 1008,-10"/>
<text text-anchor="start" x="1031.7812" y="-15.4" font-family="sans-serif" font-size="14.00" fill="#000000"> &#160;Bootstrap</text>
<polygon fill="#fdb462" stroke="transparent" points="1105,-10 1105,-30 1125,-30 1125,-10 1105,-10"/>
<text text-anchor="start" x="1128.6732" y="-15.4" font-family="sans-serif" font-size="14.00" fill="#000000"> &#160;Providers</text>
<polygon fill="#fb8072" stroke="transparent" points="1201,-10 1201,-30 1221,-30 1221,-10 1201,-10"/>
<text text-anchor="start" x="1224.7258" y="-15.4" font-family="sans-serif" font-size="14.00" fill="#000000"> &#160;Exports</text>
<g id="clust1" class="cluster">
<title>cluster_AppModule</title>
<polygon fill="none" stroke="#000000" stroke-dasharray="1,5" points="8,-70 8,-268 2078,-268 2078,-70 8,-70"/>
</g>
<g id="clust2" class="cluster">
<title>cluster_AppModule_declarations</title>
<polygon fill="none" stroke="#000000" points="784,-78 784,-130 2070,-130 2070,-78 784,-78"/>
</g>
<g id="clust16" class="cluster">
<title>cluster_AppModule_bootstrap</title>
<polygon fill="none" stroke="#000000" points="1055,-208 1055,-260 1143,-260 1143,-208 1055,-208"/>
</g>
<g id="clust17" class="cluster">
<title>cluster_AppModule_providers</title>
<polygon fill="none" stroke="#000000" points="16,-78 16,-130 776,-130 776,-78 16,-78"/>
</g>
<!-- ChooseCoverFromSamplesPage -->
<g id="node1" class="node">
<title>ChooseCoverFromSamplesPage</title>
<polygon fill="#ffffb3" stroke="#000000" points="2061.6909,-122 1864.3091,-122 1864.3091,-86 2061.6909,-86 2061.6909,-122"/>
<text text-anchor="middle" x="1963" y="-99.8" font-family="Times,serif" font-size="14.00" fill="#000000">ChooseCoverFromSamplesPage</text>
</g>
<!-- AppModule -->
<g id="node12" class="node">
<title>AppModule</title>
<polygon fill="#8dd3c7" stroke="#000000" points="1140.6571,-187 1137.6571,-191 1116.6571,-191 1113.6571,-187 1057.3429,-187 1057.3429,-151 1140.6571,-151 1140.6571,-187"/>
<text text-anchor="middle" x="1099" y="-164.8" font-family="Times,serif" font-size="14.00" fill="#000000">AppModule</text>
</g>
<!-- ChooseCoverFromSamplesPage&#45;&gt;AppModule -->
<g id="edge1" class="edge">
<title>ChooseCoverFromSamplesPage&#45;&gt;AppModule</title>
<path fill="none" stroke="#000000" d="M1963,-122.3228C1963,-145.6602 1963,-183 1963,-183 1963,-183 1150.6725,-183 1150.6725,-183"/>
<polygon fill="#000000" stroke="#000000" points="1150.6726,-179.5001 1140.6725,-183 1150.6725,-186.5001 1150.6726,-179.5001"/>
</g>
<!-- FirstStartPage -->
<g id="node2" class="node">
<title>FirstStartPage</title>
<polygon fill="#ffffb3" stroke="#000000" points="1846.8203,-122 1751.1797,-122 1751.1797,-86 1846.8203,-86 1846.8203,-122"/>
<text text-anchor="middle" x="1799" y="-99.8" font-family="Times,serif" font-size="14.00" fill="#000000">FirstStartPage</text>
</g>
<!-- FirstStartPage&#45;&gt;AppModule -->
<g id="edge2" class="edge">
<title>FirstStartPage&#45;&gt;AppModule</title>
<path fill="none" stroke="#000000" d="M1799,-122.2921C1799,-144.2057 1799,-178 1799,-178 1799,-178 1150.6919,-178 1150.6919,-178"/>
<polygon fill="#000000" stroke="#000000" points="1150.6919,-174.5001 1140.6919,-178 1150.6918,-181.5001 1150.6919,-174.5001"/>
</g>
<!-- HomePage -->
<g id="node3" class="node">
<title>HomePage</title>
<polygon fill="#ffffb3" stroke="#000000" points="1733.9248,-122 1656.0752,-122 1656.0752,-86 1733.9248,-86 1733.9248,-122"/>
<text text-anchor="middle" x="1695" y="-99.8" font-family="Times,serif" font-size="14.00" fill="#000000">HomePage</text>
</g>
<!-- HomePage&#45;&gt;AppModule -->
<g id="edge3" class="edge">
<title>HomePage&#45;&gt;AppModule</title>
<path fill="none" stroke="#000000" d="M1695,-122.0267C1695,-142.7672 1695,-174 1695,-174 1695,-174 1150.9096,-174 1150.9096,-174"/>
<polygon fill="#000000" stroke="#000000" points="1150.9096,-170.5001 1140.9096,-174 1150.9095,-177.5001 1150.9096,-170.5001"/>
</g>
<!-- ListViewerPage -->
<g id="node4" class="node">
<title>ListViewerPage</title>
<polygon fill="#ffffb3" stroke="#000000" points="1638.184,-122 1531.816,-122 1531.816,-86 1638.184,-86 1638.184,-122"/>
<text text-anchor="middle" x="1585" y="-99.8" font-family="Times,serif" font-size="14.00" fill="#000000">ListViewerPage</text>
</g>
<!-- ListViewerPage&#45;&gt;AppModule -->
<g id="edge4" class="edge">
<title>ListViewerPage&#45;&gt;AppModule</title>
<path fill="none" stroke="#000000" d="M1585,-122.1061C1585,-141.3391 1585,-169 1585,-169 1585,-169 1150.8567,-169 1150.8567,-169"/>
<polygon fill="#000000" stroke="#000000" points="1150.8568,-165.5001 1140.8567,-169 1150.8567,-172.5001 1150.8568,-165.5001"/>
</g>
<!-- LocalListsPage -->
<g id="node5" class="node">
<title>LocalListsPage</title>
<polygon fill="#ffffb3" stroke="#000000" points="1514.3077,-122 1411.6923,-122 1411.6923,-86 1514.3077,-86 1514.3077,-122"/>
<text text-anchor="middle" x="1463" y="-99.8" font-family="Times,serif" font-size="14.00" fill="#000000">LocalListsPage</text>
</g>
<!-- LocalListsPage&#45;&gt;AppModule -->
<g id="edge5" class="edge">
<title>LocalListsPage&#45;&gt;AppModule</title>
<path fill="none" stroke="#000000" d="M1463,-122.302C1463,-140.2699 1463,-165 1463,-165 1463,-165 1150.7554,-165 1150.7554,-165"/>
<polygon fill="#000000" stroke="#000000" points="1150.7555,-161.5001 1140.7554,-165 1150.7554,-168.5001 1150.7555,-161.5001"/>
</g>
<!-- MyApp -->
<g id="node6" class="node">
<title>MyApp</title>
<polygon fill="#ffffb3" stroke="#000000" points="1393.5529,-122 1334.4471,-122 1334.4471,-86 1393.5529,-86 1393.5529,-122"/>
<text text-anchor="middle" x="1364" y="-99.8" font-family="Times,serif" font-size="14.00" fill="#000000">MyApp</text>
</g>
<!-- MyApp&#45;&gt;AppModule -->
<g id="edge6" class="edge">
<title>MyApp&#45;&gt;AppModule</title>
<path fill="none" stroke="#000000" d="M1364,-122.027C1364,-138.3976 1364,-160 1364,-160 1364,-160 1150.6978,-160 1150.6978,-160"/>
<polygon fill="#000000" stroke="#000000" points="1150.6978,-156.5001 1140.6978,-160 1150.6977,-163.5001 1150.6978,-156.5001"/>
</g>
<!-- NewItemPage -->
<g id="node7" class="node">
<title>NewItemPage</title>
<polygon fill="#ffffb3" stroke="#000000" points="1316.7965,-122 1221.2035,-122 1221.2035,-86 1316.7965,-86 1316.7965,-122"/>
<text text-anchor="middle" x="1269" y="-99.8" font-family="Times,serif" font-size="14.00" fill="#000000">NewItemPage</text>
</g>
<!-- NewItemPage&#45;&gt;AppModule -->
<g id="edge7" class="edge">
<title>NewItemPage&#45;&gt;AppModule</title>
<path fill="none" stroke="#000000" d="M1269,-122.1871C1269,-137.1824 1269,-156 1269,-156 1269,-156 1151.0225,-156 1151.0225,-156"/>
<polygon fill="#000000" stroke="#000000" points="1151.0225,-152.5001 1141.0225,-156 1151.0224,-159.5001 1151.0225,-152.5001"/>
</g>
<!-- NewListPage -->
<g id="node8" class="node">
<title>NewListPage</title>
<polygon fill="#ffffb3" stroke="#000000" points="1203.919,-122 1112.081,-122 1112.081,-86 1203.919,-86 1203.919,-122"/>
<text text-anchor="middle" x="1158" y="-99.8" font-family="Times,serif" font-size="14.00" fill="#000000">NewListPage</text>
</g>
<!-- NewListPage&#45;&gt;AppModule -->
<g id="edge8" class="edge">
<title>NewListPage&#45;&gt;AppModule</title>
<path fill="none" stroke="#000000" d="M1126.5596,-122.1061C1126.5596,-122.1061 1126.5596,-140.991 1126.5596,-140.991"/>
<polygon fill="#000000" stroke="#000000" points="1123.0597,-140.9909 1126.5596,-150.991 1130.0597,-140.991 1123.0597,-140.9909"/>
</g>
<!-- OnlineListsPage -->
<g id="node9" class="node">
<title>OnlineListsPage</title>
<polygon fill="#ffffb3" stroke="#000000" points="1094.0382,-122 985.9618,-122 985.9618,-86 1094.0382,-86 1094.0382,-122"/>
<text text-anchor="middle" x="1040" y="-99.8" font-family="Times,serif" font-size="14.00" fill="#000000">OnlineListsPage</text>
</g>
<!-- OnlineListsPage&#45;&gt;AppModule -->
<g id="edge9" class="edge">
<title>OnlineListsPage&#45;&gt;AppModule</title>
<path fill="none" stroke="#000000" d="M1075.7202,-122.1061C1075.7202,-122.1061 1075.7202,-140.991 1075.7202,-140.991"/>
<polygon fill="#000000" stroke="#000000" points="1072.2203,-140.9909 1075.7202,-150.991 1079.2203,-140.991 1072.2203,-140.9909"/>
</g>
<!-- SettingsPage -->
<g id="node10" class="node">
<title>SettingsPage</title>
<polygon fill="#ffffb3" stroke="#000000" points="968.326,-122 879.674,-122 879.674,-86 968.326,-86 968.326,-122"/>
<text text-anchor="middle" x="924" y="-99.8" font-family="Times,serif" font-size="14.00" fill="#000000">SettingsPage</text>
</g>
<!-- SettingsPage&#45;&gt;AppModule -->
<g id="edge10" class="edge">
<title>SettingsPage&#45;&gt;AppModule</title>
<path fill="none" stroke="#000000" d="M924,-122.1871C924,-137.1824 924,-156 924,-156 924,-156 1047.0831,-156 1047.0831,-156"/>
<polygon fill="#000000" stroke="#000000" points="1047.0832,-159.5001 1057.0831,-156 1047.0831,-152.5001 1047.0832,-159.5001"/>
</g>
<!-- TabsPage -->
<g id="node11" class="node">
<title>TabsPage</title>
<polygon fill="#ffffb3" stroke="#000000" points="862.4249,-122 791.5751,-122 791.5751,-86 862.4249,-86 862.4249,-122"/>
<text text-anchor="middle" x="827" y="-99.8" font-family="Times,serif" font-size="14.00" fill="#000000">TabsPage</text>
</g>
<!-- TabsPage&#45;&gt;AppModule -->
<g id="edge11" class="edge">
<title>TabsPage&#45;&gt;AppModule</title>
<path fill="none" stroke="#000000" d="M827,-122.027C827,-138.3976 827,-160 827,-160 827,-160 1047.0961,-160 1047.0961,-160"/>
<polygon fill="#000000" stroke="#000000" points="1047.0961,-163.5001 1057.0961,-160 1047.0961,-156.5001 1047.0961,-163.5001"/>
</g>
<!-- IonicApp  -->
<g id="node13" class="node">
<title>IonicApp </title>
<polygon fill="#80b1d3" stroke="#000000" points="1135.3734,-252 1062.6266,-252 1062.6266,-216 1135.3734,-216 1135.3734,-252"/>
<text text-anchor="middle" x="1099" y="-229.8" font-family="Times,serif" font-size="14.00" fill="#000000">IonicApp </text>
</g>
<!-- AppModule&#45;&gt;IonicApp  -->
<g id="edge12" class="edge">
<title>AppModule&#45;&gt;IonicApp </title>
<path fill="none" stroke="#000000" stroke-dasharray="1,5" d="M1099,-187.1061C1099,-187.1061 1099,-205.991 1099,-205.991"/>
<polygon fill="#000000" stroke="#000000" points="1095.5001,-205.9909 1099,-215.991 1102.5001,-205.991 1095.5001,-205.9909"/>
</g>
<!-- Encryption -->
<g id="node14" class="node">
<title>Encryption</title>
<ellipse fill="#fdb462" stroke="#000000" cx="714" cy="-104" rx="53.8943" ry="18"/>
<text text-anchor="middle" x="714" y="-99.8" font-family="Times,serif" font-size="14.00" fill="#000000">Encryption</text>
</g>
<!-- Encryption&#45;&gt;AppModule -->
<g id="edge13" class="edge">
<title>Encryption&#45;&gt;AppModule</title>
<path fill="none" stroke="#000000" d="M714,-122.302C714,-140.2699 714,-165 714,-165 714,-165 1047.0654,-165 1047.0654,-165"/>
<polygon fill="#000000" stroke="#000000" points="1047.0654,-168.5001 1057.0654,-165 1047.0653,-161.5001 1047.0654,-168.5001"/>
</g>
<!-- FirebaseManager -->
<g id="node15" class="node">
<title>FirebaseManager</title>
<ellipse fill="#fdb462" stroke="#000000" cx="564" cy="-104" rx="78.1269" ry="18"/>
<text text-anchor="middle" x="564" y="-99.8" font-family="Times,serif" font-size="14.00" fill="#000000">FirebaseManager</text>
</g>
<!-- FirebaseManager&#45;&gt;AppModule -->
<g id="edge14" class="edge">
<title>FirebaseManager&#45;&gt;AppModule</title>
<path fill="none" stroke="#000000" d="M564,-122.1061C564,-141.3391 564,-169 564,-169 564,-169 1047.0194,-169 1047.0194,-169"/>
<polygon fill="#000000" stroke="#000000" points="1047.0195,-172.5001 1057.0194,-169 1047.0194,-165.5001 1047.0195,-172.5001"/>
</g>
<!-- StorageManager -->
<g id="node16" class="node">
<title>StorageManager</title>
<ellipse fill="#fdb462" stroke="#000000" cx="393" cy="-104" rx="74.6995" ry="18"/>
<text text-anchor="middle" x="393" y="-99.8" font-family="Times,serif" font-size="14.00" fill="#000000">StorageManager</text>
</g>
<!-- StorageManager&#45;&gt;AppModule -->
<g id="edge15" class="edge">
<title>StorageManager&#45;&gt;AppModule</title>
<path fill="none" stroke="#000000" d="M393,-122.0267C393,-142.7672 393,-174 393,-174 393,-174 1047.2119,-174 1047.2119,-174"/>
<polygon fill="#000000" stroke="#000000" points="1047.2119,-177.5001 1057.2119,-174 1047.2118,-170.5001 1047.2119,-177.5001"/>
</g>
<!-- UserSettings -->
<g id="node17" class="node">
<title>UserSettings</title>
<ellipse fill="#fdb462" stroke="#000000" cx="240" cy="-104" rx="60.2672" ry="18"/>
<text text-anchor="middle" x="240" y="-99.8" font-family="Times,serif" font-size="14.00" fill="#000000">UserSettings</text>
</g>
<!-- UserSettings&#45;&gt;AppModule -->
<g id="edge16" class="edge">
<title>UserSettings&#45;&gt;AppModule</title>
<path fill="none" stroke="#000000" d="M240,-122.2921C240,-144.2057 240,-178 240,-178 240,-178 1047.2783,-178 1047.2783,-178"/>
<polygon fill="#000000" stroke="#000000" points="1047.2784,-181.5001 1057.2783,-178 1047.2783,-174.5001 1047.2784,-181.5001"/>
</g>
<!-- UuidGenerator -->
<g id="node18" class="node">
<title>UuidGenerator</title>
<ellipse fill="#fdb462" stroke="#000000" cx="93" cy="-104" rx="68.9004" ry="18"/>
<text text-anchor="middle" x="93" y="-99.8" font-family="Times,serif" font-size="14.00" fill="#000000">UuidGenerator</text>
</g>
<!-- UuidGenerator&#45;&gt;AppModule -->
<g id="edge17" class="edge">
<title>UuidGenerator&#45;&gt;AppModule</title>
<path fill="none" stroke="#000000" d="M93,-122.3228C93,-145.6602 93,-183 93,-183 93,-183 1047.0542,-183 1047.0542,-183"/>
<polygon fill="#000000" stroke="#000000" points="1047.0543,-186.5001 1057.0542,-183 1047.0542,-179.5001 1047.0543,-186.5001"/>
</g>
</g>
</svg>
